<?xml version="1.0" encoding="UTF-8" standalone="no"?>
<!DOCTYPE svg PUBLIC "-//W3C//DTD SVG 1.1//EN" "http://www.w3.org/Graphics/SVG/1.1/DTD/svg11.dtd">
<svg version="1.1" xmlns="http://www.w3.org/2000/svg" xmlns:xlink="http://www.w3.org/1999/xlink" preserveAspectRatio="xMidYMid meet" viewBox="0 0 64 64" width="64" height="64"><defs><path d="M53.65 59.98L35.5 49.84L54.03 38.23L53.65 59.98Z" id="a2I8dT70T"></path><path d="M53.65 59.98L35.5 49.84L54.03 38.23L53.65 59.98Z" id="a1FYPXWUwB"></path><path d="M32 51C14.34 51 0 40.7 0 28C0 15.3 14.34 5 32 5C49.66 5 64 15.3 64 28C64 40.7 49.66 51 32 51Z" id="b2chjZOmap"></path><path d="M14.5 33.5C11.47 33.5 9 31.03 9 28C9 24.97 11.47 22.5 14.5 22.5C17.54 22.5 20 24.97 20 28C20 31.03 17.54 33.5 14.5 33.5Z" id="b1kFLMjTZp"></path><path d="M32 33.5C28.97 33.5 26.5 31.03 26.5 28C26.5 24.97 28.97 22.5 32 22.5C35.03 22.5 37.5 24.97 37.5 28C37.5 31.03 35.03 33.5 32 33.5Z" id="a1VmgIncqb"></path><path d="M49.5 33.5C46.46 33.5 44 31.03 44 28C44 24.97 46.46 22.5 49.5 22.5C52.53 22.5 55 24.97 55 28C55 31.03 52.53 33.5 49.5 33.5Z" id="aie3eGQy"></path></defs><g><g><g><g><use xlink:href="#a2I8dT70T" opacity="1" fill="#529f90" fill-opacity="1"></use><g><use xlink:href="#a2I8dT70T" opacity="1" fill-opacity="0" stroke="#000000" stroke-width="1" stroke-opacity="0"></use></g></g><g><use xlink:href="#a1FYPXWUwB" opacity="1" fill="#000000" fill-opacity="0"></use><g><use xlink:href="#a1FYPXWUwB" opacity="1" fill-opacity="0" stroke="#529f90" stroke-width="1" stroke-opacity="1"></use></g></g></g><g><use xlink:href="#b2chjZOmap" opacity="1" fill="#529f90" fill-opacity="1"></use><g><use xlink:href="#b2chjZOmap" opacity="1" fill-opacity="0" stroke="#000000" stroke-width="1" stroke-opacity="0"></use></g></g><g><use xlink:href="#b1kFLMjTZp" opacity="1" fill="#000000" fill-opacity="1"></use><g><use xlink:href="#b1kFLMjTZp" opacity="1" fill-opacity="0" stroke="#000000" stroke-width="1" stroke-opacity="0"></use></g></g><g><use xlink:href="#a1VmgIncqb" opacity="1" fill="#000000" fill-opacity="1"></use><g><use xlink:href="#a1VmgIncqb" opacity="1" fill-opacity="0" stroke="#000000" stroke-width="1" stroke-opacity="0"></use></g></g><g><use xlink:href="#aie3eGQy" opacity="1" fill="#000000" fill-opacity="1"></use><g><use xlink:href="#aie3eGQy" opacity="1" fill-opacity="0" stroke="#000000" stroke-width="1" stroke-opacity="0"></use></g></g></g></g></svg>